<!-- icon666.com - MILLIONS vector ICONS FREE --><svg id="Layer_3" viewBox="0 0 24 24" xmlns="http://www.w3.org/2000/svg" data-name="Layer 3"><path d="m19.5 4h-14a1.5 1.5 0 0 0 -1.5 1.5v12a1.5 1.5 0 0 0 1.5 1.5h14a1.5 1.5 0 0 0 1.5-1.5v-12a1.5 1.5 0 0 0 -1.5-1.5zm-14 1h14a.5.5 0 0 1 .5.5v.5h-15v-.5a.5.5 0 0 1 .5-.5zm14 13h-14a.5.5 0 0 1 -.5-.5v-10.5h15v10.5a.5.5 0 0 1 -.5.5z" fill="#000000" style="fill: rgb(255, 255, 255);"></path><path d="m9 8a.5.5 0 0 0 -.5.5v4.5h-1.5v-4.5a.5.5 0 0 0 -1 0v4.5a1 1 0 0 0 1 1h1.5v2a.5.5 0 0 0 1 0v-7.5a.5.5 0 0 0 -.5-.5z" fill="#000000" style="fill: rgb(255, 255, 255);"></path><path d="m18.5 8a.5.5 0 0 0 -.5.5v4.5h-1.5v-4.5a.5.5 0 0 0 -1 0v4.5a1 1 0 0 0 1 1h1.5v2a.5.5 0 0 0 1 0v-7.5a.5.5 0 0 0 -.5-.5z" fill="#000000" style="fill: rgb(255, 255, 255);"></path><path d="m13.5 8h-2a1 1 0 0 0 -1 1v7a1 1 0 0 0 1 1h2a1 1 0 0 0 1-1v-7a1 1 0 0 0 -1-1zm0 8h-2v-7h2z" fill="#000000" style="fill: rgb(255, 255, 255);"></path></svg>