<!-- icon666.com - MILLIONS vector ICONS FREE --><svg id="line" viewBox="0 0 64 64" xmlns="http://www.w3.org/2000/svg"><path d="m22.953 27.869a.474.474 0 0 0 -.474.474v8.057h-9.917l10.761-13.45a.474.474 0 0 0 -.741-.592l-11.376 14.221a.474.474 0 0 0 .37.77h10.9v8.059a.474.474 0 0 0 .948 0v-17.065a.474.474 0 0 0 -.471-.474z" fill="#000000" style="fill: rgb(254, 251, 251);"></path><path d="m39.63 36.579 11.376-14.22a.474.474 0 0 1 .741.592l-10.761 13.449h9.914v-8.057a.474.474 0 0 1 .948 0v17.065a.474.474 0 1 1 -.948 0v-8.059h-10.9a.474.474 0 0 1 -.37-.77z" fill="#000000" style="fill: rgb(254, 251, 251);"></path><path d="m33.93 27.148h-4.341c-1.861 0-3.318 1.046-3.318 2.38v13.972c0 1.334 1.457 2.38 3.318 2.38h4.341c1.861 0 3.318-1.046 3.318-2.38v-13.972c0-1.334-1.457-2.38-3.318-2.38zm2.37 16.352c0 .776-1.085 1.432-2.37 1.432h-4.341c-1.285 0-2.37-.656-2.37-1.432v-13.972c0-.776 1.085-1.432 2.37-1.432h4.341c1.285 0 2.37.656 2.37 1.432z" fill="#000000" style="fill: rgb(254, 251, 251);"></path><path d="m54.841 14.027h-31.876a3.036 3.036 0 0 0 -1.67.5 2.985 2.985 0 0 0 -1.985-.765h-10.151a3.016 3.016 0 0 0 -3.013 3.012v30.454a3.016 3.016 0 0 0 3.013 3.012h45.682a3.016 3.016 0 0 0 3.013-3.012v-30.189a3.016 3.016 0 0 0 -3.013-3.012zm0 .948a2.067 2.067 0 0 1 2.065 2.064v2.627a3 3 0 0 0 -2.065-.83h-30.455a2.066 2.066 0 0 1 -2.063-2.064 2.978 2.978 0 0 0 -.423-1.513 2.112 2.112 0 0 1 1.065-.284zm2.065 32.253a2.067 2.067 0 0 1 -2.065 2.064h-45.682a2.067 2.067 0 0 1 -2.065-2.064v-30.456a2.067 2.067 0 0 1 2.065-2.064h10.151a2.067 2.067 0 0 1 2.065 2.064 3.014 3.014 0 0 0 3.011 3.012h30.455a2.067 2.067 0 0 1 2.065 2.064z" fill="#000000" style="fill: rgb(254, 251, 251);"></path></svg>