<!-- icon666.com - MILLIONS vector ICONS FREE --><svg id="Objects" viewBox="0 0 48 48" xmlns="http://www.w3.org/2000/svg"><path d="m32.71 2h-17.42a13.3 13.3 0 0 0 -13.29 13.29v17.42a13.3 13.3 0 0 0 13.29 13.29h17.42a13.3 13.3 0 0 0 13.29-13.29v-17.42a13.3 13.3 0 0 0 -13.29-13.29zm-17.42 2h17.42a11.31 11.31 0 0 1 10.8 8h-39a11.31 11.31 0 0 1 10.78-8zm28.71 28.71a11.31 11.31 0 0 1 -11.29 11.29h-17.42a11.31 11.31 0 0 1 -11.29-11.29s0-18.29.08-18.71h39.84c.08.42.08 18.71.08 18.71z" fill="#000000" style="fill: rgb(255, 255, 255);"></path><circle cx="11" cy="8" r="1" fill="#000000" style="fill: rgb(255, 255, 255);"></circle><circle cx="14" cy="8" r="1" fill="#000000" style="fill: rgb(255, 255, 255);"></circle><circle cx="17" cy="8" r="1" fill="#000000" style="fill: rgb(255, 255, 255);"></circle><path d="m17.35 22.56a1 1 0 0 0 -1.11.29l-6 7a1 1 0 0 0 -.15 1.07 1 1 0 0 0 .91.58h5v3a1 1 0 0 0 2 0v-11a1 1 0 0 0 -.65-.94zm-1.35 6.94h-2.83l2.83-3.3z" fill="#000000" style="fill: rgb(255, 255, 255);"></path><path d="m37.35 22.56a1 1 0 0 0 -1.11.29l-6 7a1 1 0 0 0 -.15 1.07 1 1 0 0 0 .91.58h5v3a1 1 0 0 0 2 0v-11a1 1 0 0 0 -.65-.94zm-1.35 6.94h-2.83l2.83-3.3z" fill="#000000" style="fill: rgb(255, 255, 255);"></path><path d="m24 22.5c-2.28 0-4 2.79-4 6.5s1.72 6.5 4 6.5 4-2.79 4-6.5-1.72-6.5-4-6.5zm0 11c-.82 0-2-1.75-2-4.5s1.18-4.5 2-4.5 2 1.75 2 4.5-1.18 4.5-2 4.5z" fill="#000000" style="fill: rgb(255, 255, 255);"></path></svg>